<mxfile host="app.diagrams.net" agent="Mozilla/5.0 (Windows NT 10.0; Win64; x64; rv:109.0) Gecko/20100101 Firefox/117.0" version="26.0.14" pages="9">
  <diagram name="1" id="5dE94d4r-sCJyBhKH_mc">
    <mxGraphModel dx="1055" dy="492" grid="1" gridSize="10" guides="1" tooltips="1" connect="1" arrows="1" fold="1" page="1" pageScale="1" pageWidth="827" pageHeight="1169" math="0" shadow="0">
      <root>
        <mxCell id="0" />
        <mxCell id="1" parent="0" />
        <mxCell id="Ffr5Gt8TU20ThIrUEl5b-4" value="" style="edgeStyle=orthogonalEdgeStyle;rounded=0;orthogonalLoop=1;jettySize=auto;html=1;" edge="1" parent="1" source="Ffr5Gt8TU20ThIrUEl5b-2" target="Ffr5Gt8TU20ThIrUEl5b-3">
          <mxGeometry relative="1" as="geometry" />
        </mxCell>
        <mxCell id="Ffr5Gt8TU20ThIrUEl5b-2" value="INÍCIO" style="strokeWidth=2;html=1;shape=mxgraph.flowchart.start_1;whiteSpace=wrap;" vertex="1" parent="1">
          <mxGeometry x="380" y="940" width="100" height="60" as="geometry" />
        </mxCell>
        <mxCell id="Ffr5Gt8TU20ThIrUEl5b-6" value="" style="edgeStyle=orthogonalEdgeStyle;rounded=0;orthogonalLoop=1;jettySize=auto;html=1;" edge="1" parent="1" source="Ffr5Gt8TU20ThIrUEl5b-3" target="Ffr5Gt8TU20ThIrUEl5b-5">
          <mxGeometry relative="1" as="geometry" />
        </mxCell>
        <mxCell id="Ffr5Gt8TU20ThIrUEl5b-3" value="" style="verticalLabelPosition=bottom;verticalAlign=top;html=1;shape=mxgraph.flowchart.on-page_reference;" vertex="1" parent="1">
          <mxGeometry x="415" y="1020" width="30" height="30" as="geometry" />
        </mxCell>
        <mxCell id="Ffr5Gt8TU20ThIrUEl5b-8" value="" style="edgeStyle=orthogonalEdgeStyle;rounded=0;orthogonalLoop=1;jettySize=auto;html=1;" edge="1" parent="1" source="Ffr5Gt8TU20ThIrUEl5b-5" target="Ffr5Gt8TU20ThIrUEl5b-7">
          <mxGeometry relative="1" as="geometry" />
        </mxCell>
        <mxCell id="Ffr5Gt8TU20ThIrUEl5b-5" value="&lt;div&gt;&lt;br&gt;&lt;/div&gt;&lt;div&gt;&lt;span style=&quot;background-color: transparent; color: light-dark(rgb(0, 0, 0), rgb(255, 255, 255));&quot;&gt;Insira o nome do prato&lt;/span&gt;&lt;/div&gt;" style="html=1;strokeWidth=2;shape=manualInput;whiteSpace=wrap;rounded=1;size=26;arcSize=11;" vertex="1" parent="1">
          <mxGeometry x="380" y="1070" width="100" height="60" as="geometry" />
        </mxCell>
        <mxCell id="Ffr5Gt8TU20ThIrUEl5b-10" value="" style="edgeStyle=orthogonalEdgeStyle;rounded=0;orthogonalLoop=1;jettySize=auto;html=1;" edge="1" parent="1" source="Ffr5Gt8TU20ThIrUEl5b-7" target="Ffr5Gt8TU20ThIrUEl5b-9">
          <mxGeometry relative="1" as="geometry" />
        </mxCell>
        <mxCell id="Ffr5Gt8TU20ThIrUEl5b-7" value="&lt;div&gt;&lt;br&gt;&lt;/div&gt;Digite a quantidade&amp;nbsp;" style="html=1;strokeWidth=2;shape=manualInput;whiteSpace=wrap;rounded=1;size=26;arcSize=11;" vertex="1" parent="1">
          <mxGeometry x="380" y="1150" width="100" height="60" as="geometry" />
        </mxCell>
        <mxCell id="Ffr5Gt8TU20ThIrUEl5b-12" value="" style="edgeStyle=orthogonalEdgeStyle;rounded=0;orthogonalLoop=1;jettySize=auto;html=1;" edge="1" parent="1" source="Ffr5Gt8TU20ThIrUEl5b-9" target="Ffr5Gt8TU20ThIrUEl5b-11">
          <mxGeometry relative="1" as="geometry" />
        </mxCell>
        <mxCell id="Ffr5Gt8TU20ThIrUEl5b-9" value="&lt;div&gt;&lt;br&gt;&lt;/div&gt;Preço unitário" style="html=1;strokeWidth=2;shape=manualInput;whiteSpace=wrap;rounded=1;size=26;arcSize=11;" vertex="1" parent="1">
          <mxGeometry x="380" y="1230" width="100" height="60" as="geometry" />
        </mxCell>
        <mxCell id="Ffr5Gt8TU20ThIrUEl5b-14" value="" style="edgeStyle=orthogonalEdgeStyle;rounded=0;orthogonalLoop=1;jettySize=auto;html=1;" edge="1" parent="1" source="Ffr5Gt8TU20ThIrUEl5b-11" target="Ffr5Gt8TU20ThIrUEl5b-13">
          <mxGeometry relative="1" as="geometry" />
        </mxCell>
        <mxCell id="Ffr5Gt8TU20ThIrUEl5b-11" value="ValorTotal = Quantidade * PreçoUni" style="whiteSpace=wrap;html=1;strokeWidth=2;rounded=1;arcSize=11;" vertex="1" parent="1">
          <mxGeometry x="550" y="1230" width="120" height="60" as="geometry" />
        </mxCell>
        <mxCell id="Ffr5Gt8TU20ThIrUEl5b-16" value="" style="edgeStyle=orthogonalEdgeStyle;rounded=0;orthogonalLoop=1;jettySize=auto;html=1;" edge="1" parent="1" source="Ffr5Gt8TU20ThIrUEl5b-13" target="Ffr5Gt8TU20ThIrUEl5b-15">
          <mxGeometry relative="1" as="geometry" />
        </mxCell>
        <mxCell id="Ffr5Gt8TU20ThIrUEl5b-13" value="Pedido += 1" style="whiteSpace=wrap;html=1;strokeWidth=2;rounded=1;arcSize=11;" vertex="1" parent="1">
          <mxGeometry x="550" y="1120" width="120" height="60" as="geometry" />
        </mxCell>
        <mxCell id="Ffr5Gt8TU20ThIrUEl5b-18" value="" style="edgeStyle=orthogonalEdgeStyle;rounded=0;orthogonalLoop=1;jettySize=auto;html=1;" edge="1" parent="1" source="Ffr5Gt8TU20ThIrUEl5b-15" target="Ffr5Gt8TU20ThIrUEl5b-17">
          <mxGeometry relative="1" as="geometry" />
        </mxCell>
        <mxCell id="Ffr5Gt8TU20ThIrUEl5b-15" value="Pedido Registrado com sucesso" style="strokeWidth=2;html=1;shape=mxgraph.flowchart.display;whiteSpace=wrap;" vertex="1" parent="1">
          <mxGeometry x="560" y="1020" width="100" height="60" as="geometry" />
        </mxCell>
        <mxCell id="Ffr5Gt8TU20ThIrUEl5b-19" value="" style="edgeStyle=orthogonalEdgeStyle;rounded=0;orthogonalLoop=1;jettySize=auto;html=1;entryX=0;entryY=0.5;entryDx=0;entryDy=0;entryPerimeter=0;exitX=0.5;exitY=0;exitDx=0;exitDy=0;exitPerimeter=0;" edge="1" parent="1" source="Ffr5Gt8TU20ThIrUEl5b-17" target="Ffr5Gt8TU20ThIrUEl5b-3">
          <mxGeometry relative="1" as="geometry">
            <Array as="points">
              <mxPoint x="610" y="880" />
              <mxPoint x="330" y="880" />
              <mxPoint x="330" y="1035" />
            </Array>
          </mxGeometry>
        </mxCell>
        <mxCell id="Ffr5Gt8TU20ThIrUEl5b-20" value="V" style="edgeLabel;html=1;align=center;verticalAlign=middle;resizable=0;points=[];" vertex="1" connectable="0" parent="Ffr5Gt8TU20ThIrUEl5b-19">
          <mxGeometry x="-0.5326" y="-1" relative="1" as="geometry">
            <mxPoint as="offset" />
          </mxGeometry>
        </mxCell>
        <mxCell id="Ffr5Gt8TU20ThIrUEl5b-22" value="" style="edgeStyle=orthogonalEdgeStyle;rounded=0;orthogonalLoop=1;jettySize=auto;html=1;" edge="1" parent="1" source="Ffr5Gt8TU20ThIrUEl5b-17" target="Ffr5Gt8TU20ThIrUEl5b-21">
          <mxGeometry relative="1" as="geometry" />
        </mxCell>
        <mxCell id="-B86Rn79q_nOOgxx0dif-1" value="F" style="edgeLabel;html=1;align=center;verticalAlign=middle;resizable=0;points=[];" vertex="1" connectable="0" parent="Ffr5Gt8TU20ThIrUEl5b-22">
          <mxGeometry x="-0.1406" y="-2" relative="1" as="geometry">
            <mxPoint as="offset" />
          </mxGeometry>
        </mxCell>
        <mxCell id="Ffr5Gt8TU20ThIrUEl5b-17" value="Deseja registrar outro pedido?" style="strokeWidth=2;html=1;shape=mxgraph.flowchart.decision;whiteSpace=wrap;" vertex="1" parent="1">
          <mxGeometry x="560" y="900" width="100" height="100" as="geometry" />
        </mxCell>
        <mxCell id="Ffr5Gt8TU20ThIrUEl5b-21" value="FIM" style="strokeWidth=2;html=1;shape=mxgraph.flowchart.terminator;whiteSpace=wrap;" vertex="1" parent="1">
          <mxGeometry x="727" y="920" width="100" height="60" as="geometry" />
        </mxCell>
      </root>
    </mxGraphModel>
  </diagram>
  <diagram id="Xotu9i_zz__DDbZpvRBg" name="2">
    <mxGraphModel dx="1187" dy="553" grid="1" gridSize="10" guides="1" tooltips="1" connect="1" arrows="1" fold="1" page="1" pageScale="1" pageWidth="827" pageHeight="1169" math="0" shadow="0">
      <root>
        <mxCell id="0" />
        <mxCell id="1" parent="0" />
        <mxCell id="yqS08S1DopYPHID6k0yR-2" value="" style="edgeStyle=orthogonalEdgeStyle;rounded=0;orthogonalLoop=1;jettySize=auto;html=1;" edge="1" parent="1" source="mjfPcsex7Xe2jX7XgGDg-3" target="yqS08S1DopYPHID6k0yR-1">
          <mxGeometry relative="1" as="geometry" />
        </mxCell>
        <mxCell id="mjfPcsex7Xe2jX7XgGDg-3" value="INÍCIO" style="strokeWidth=2;html=1;shape=mxgraph.flowchart.start_1;whiteSpace=wrap;" vertex="1" parent="1">
          <mxGeometry x="530" y="120" width="100" height="60" as="geometry" />
        </mxCell>
        <mxCell id="yqS08S1DopYPHID6k0yR-5" value="" style="edgeStyle=orthogonalEdgeStyle;rounded=0;orthogonalLoop=1;jettySize=auto;html=1;" edge="1" parent="1" source="yqS08S1DopYPHID6k0yR-1">
          <mxGeometry relative="1" as="geometry">
            <mxPoint x="580" y="310" as="targetPoint" />
          </mxGeometry>
        </mxCell>
        <mxCell id="yqS08S1DopYPHID6k0yR-1" value="&lt;div&gt;&lt;br&gt;&lt;/div&gt;Escolha um equipamento" style="html=1;strokeWidth=2;shape=manualInput;whiteSpace=wrap;rounded=1;size=26;arcSize=11;" vertex="1" parent="1">
          <mxGeometry x="530" y="210" width="100" height="60" as="geometry" />
        </mxCell>
        <mxCell id="yqS08S1DopYPHID6k0yR-8" value="" style="edgeStyle=orthogonalEdgeStyle;rounded=0;orthogonalLoop=1;jettySize=auto;html=1;" edge="1" parent="1" source="yqS08S1DopYPHID6k0yR-6" target="yqS08S1DopYPHID6k0yR-7">
          <mxGeometry relative="1" as="geometry" />
        </mxCell>
        <mxCell id="yqS08S1DopYPHID6k0yR-9" value="V" style="edgeLabel;html=1;align=center;verticalAlign=middle;resizable=0;points=[];" vertex="1" connectable="0" parent="yqS08S1DopYPHID6k0yR-8">
          <mxGeometry x="-0.36" y="-4" relative="1" as="geometry">
            <mxPoint as="offset" />
          </mxGeometry>
        </mxCell>
        <mxCell id="yqS08S1DopYPHID6k0yR-11" value="" style="edgeStyle=orthogonalEdgeStyle;rounded=0;orthogonalLoop=1;jettySize=auto;html=1;entryX=0;entryY=0.5;entryDx=0;entryDy=0;entryPerimeter=0;" edge="1" parent="1" source="yqS08S1DopYPHID6k0yR-6" target="yqS08S1DopYPHID6k0yR-13">
          <mxGeometry relative="1" as="geometry">
            <mxPoint x="710" y="365" as="targetPoint" />
          </mxGeometry>
        </mxCell>
        <mxCell id="yqS08S1DopYPHID6k0yR-12" value="F" style="edgeLabel;html=1;align=center;verticalAlign=middle;resizable=0;points=[];" vertex="1" connectable="0" parent="yqS08S1DopYPHID6k0yR-11">
          <mxGeometry x="0.1733" y="-2" relative="1" as="geometry">
            <mxPoint as="offset" />
          </mxGeometry>
        </mxCell>
        <mxCell id="yqS08S1DopYPHID6k0yR-6" value="&lt;font style=&quot;font-size: 10px;&quot;&gt;EquipaEscolhido ==&amp;nbsp;&lt;/font&gt;&lt;div&gt;&lt;font style=&quot;font-size: 10px;&quot;&gt;Equipamentos&lt;/font&gt;&lt;/div&gt;" style="strokeWidth=2;html=1;shape=mxgraph.flowchart.decision;whiteSpace=wrap;" vertex="1" parent="1">
          <mxGeometry x="525" y="310" width="110" height="110" as="geometry" />
        </mxCell>
        <mxCell id="tKIj-ZB2fQwFB4qrwytU-2" value="" style="edgeStyle=orthogonalEdgeStyle;rounded=0;orthogonalLoop=1;jettySize=auto;html=1;" edge="1" parent="1" source="yqS08S1DopYPHID6k0yR-7" target="tKIj-ZB2fQwFB4qrwytU-1">
          <mxGeometry relative="1" as="geometry" />
        </mxCell>
        <mxCell id="yqS08S1DopYPHID6k0yR-7" value="Emprestimo += 1" style="whiteSpace=wrap;html=1;strokeWidth=2;" vertex="1" parent="1">
          <mxGeometry x="520" y="470" width="120" height="60" as="geometry" />
        </mxCell>
        <mxCell id="yqS08S1DopYPHID6k0yR-17" value="" style="edgeStyle=orthogonalEdgeStyle;rounded=0;orthogonalLoop=1;jettySize=auto;html=1;" edge="1" parent="1" source="yqS08S1DopYPHID6k0yR-13" target="yqS08S1DopYPHID6k0yR-15">
          <mxGeometry relative="1" as="geometry" />
        </mxCell>
        <mxCell id="yqS08S1DopYPHID6k0yR-13" value="Equipamento não disponível" style="strokeWidth=2;html=1;shape=mxgraph.flowchart.display;whiteSpace=wrap;" vertex="1" parent="1">
          <mxGeometry x="719" y="332.5" width="108.33" height="65" as="geometry" />
        </mxCell>
        <mxCell id="yqS08S1DopYPHID6k0yR-15" value="FIM" style="strokeWidth=2;html=1;shape=mxgraph.flowchart.terminator;whiteSpace=wrap;" vertex="1" parent="1">
          <mxGeometry x="830.0000000000001" y="470" width="100" height="60" as="geometry" />
        </mxCell>
        <mxCell id="tKIj-ZB2fQwFB4qrwytU-3" value="" style="edgeStyle=orthogonalEdgeStyle;rounded=0;orthogonalLoop=1;jettySize=auto;html=1;" edge="1" parent="1" source="tKIj-ZB2fQwFB4qrwytU-1" target="yqS08S1DopYPHID6k0yR-15">
          <mxGeometry relative="1" as="geometry" />
        </mxCell>
        <mxCell id="tKIj-ZB2fQwFB4qrwytU-1" value="Empréstimo Realizado com sucesso" style="strokeWidth=2;html=1;shape=mxgraph.flowchart.display;whiteSpace=wrap;" vertex="1" parent="1">
          <mxGeometry x="680" y="470" width="100" height="60" as="geometry" />
        </mxCell>
      </root>
    </mxGraphModel>
  </diagram>
  <diagram id="lM-1jAapkDVq7__zMkB_" name="3">
    <mxGraphModel dx="1295" dy="604" grid="1" gridSize="10" guides="1" tooltips="1" connect="1" arrows="1" fold="1" page="1" pageScale="1" pageWidth="827" pageHeight="1169" math="0" shadow="0">
      <root>
        <mxCell id="0" />
        <mxCell id="1" parent="0" />
        <mxCell id="EC_D6ULvOY_d8TTZUSdb-4" value="" style="edgeStyle=orthogonalEdgeStyle;rounded=0;orthogonalLoop=1;jettySize=auto;html=1;" edge="1" parent="1" source="EC_D6ULvOY_d8TTZUSdb-2" target="EC_D6ULvOY_d8TTZUSdb-3">
          <mxGeometry relative="1" as="geometry" />
        </mxCell>
        <mxCell id="EC_D6ULvOY_d8TTZUSdb-2" value="INÍCIO" style="strokeWidth=2;html=1;shape=mxgraph.flowchart.start_1;whiteSpace=wrap;" vertex="1" parent="1">
          <mxGeometry x="540" y="20" width="100" height="60" as="geometry" />
        </mxCell>
        <mxCell id="EC_D6ULvOY_d8TTZUSdb-6" value="" style="edgeStyle=orthogonalEdgeStyle;rounded=0;orthogonalLoop=1;jettySize=auto;html=1;" edge="1" parent="1" source="EC_D6ULvOY_d8TTZUSdb-3" target="EC_D6ULvOY_d8TTZUSdb-5">
          <mxGeometry relative="1" as="geometry" />
        </mxCell>
        <mxCell id="EC_D6ULvOY_d8TTZUSdb-3" value="" style="verticalLabelPosition=bottom;verticalAlign=top;html=1;shape=mxgraph.flowchart.on-page_reference;" vertex="1" parent="1">
          <mxGeometry x="570" y="100" width="40" height="40" as="geometry" />
        </mxCell>
        <mxCell id="EC_D6ULvOY_d8TTZUSdb-8" value="" style="edgeStyle=orthogonalEdgeStyle;rounded=0;orthogonalLoop=1;jettySize=auto;html=1;" edge="1" parent="1" source="EC_D6ULvOY_d8TTZUSdb-5" target="EC_D6ULvOY_d8TTZUSdb-7">
          <mxGeometry relative="1" as="geometry" />
        </mxCell>
        <mxCell id="EC_D6ULvOY_d8TTZUSdb-5" value="&lt;div&gt;&lt;br&gt;&lt;/div&gt;Valor da compra" style="html=1;strokeWidth=2;shape=manualInput;whiteSpace=wrap;rounded=1;size=26;arcSize=11;" vertex="1" parent="1">
          <mxGeometry x="540" y="170" width="100" height="60" as="geometry" />
        </mxCell>
        <mxCell id="EC_D6ULvOY_d8TTZUSdb-10" value="" style="edgeStyle=orthogonalEdgeStyle;rounded=0;orthogonalLoop=1;jettySize=auto;html=1;" edge="1" parent="1" source="EC_D6ULvOY_d8TTZUSdb-7" target="EC_D6ULvOY_d8TTZUSdb-9">
          <mxGeometry relative="1" as="geometry" />
        </mxCell>
        <mxCell id="EC_D6ULvOY_d8TTZUSdb-7" value="&lt;div&gt;&lt;br&gt;&lt;/div&gt;&lt;div&gt;Desconto em porcentagem&lt;/div&gt;" style="html=1;strokeWidth=2;shape=manualInput;whiteSpace=wrap;rounded=1;size=26;arcSize=11;" vertex="1" parent="1">
          <mxGeometry x="540" y="260" width="100" height="60" as="geometry" />
        </mxCell>
        <mxCell id="EC_D6ULvOY_d8TTZUSdb-12" value="" style="edgeStyle=orthogonalEdgeStyle;rounded=0;orthogonalLoop=1;jettySize=auto;html=1;" edge="1" parent="1" source="EC_D6ULvOY_d8TTZUSdb-9" target="EC_D6ULvOY_d8TTZUSdb-11">
          <mxGeometry relative="1" as="geometry" />
        </mxCell>
        <mxCell id="EC_D6ULvOY_d8TTZUSdb-9" value="desconto = (descontoemporcentagem / 100 )&lt;div&gt;* ValorCompra&lt;/div&gt;" style="whiteSpace=wrap;html=1;strokeWidth=2;rounded=1;arcSize=11;" vertex="1" parent="1">
          <mxGeometry x="510" y="350" width="160" height="80" as="geometry" />
        </mxCell>
        <mxCell id="CNhgzBjjf0mTvzRWuVfc-2" value="" style="edgeStyle=orthogonalEdgeStyle;rounded=0;orthogonalLoop=1;jettySize=auto;html=1;" edge="1" parent="1" source="EC_D6ULvOY_d8TTZUSdb-11" target="CNhgzBjjf0mTvzRWuVfc-1">
          <mxGeometry relative="1" as="geometry" />
        </mxCell>
        <mxCell id="EC_D6ULvOY_d8TTZUSdb-11" value="ValorFinal = ValorCompra - desconto" style="whiteSpace=wrap;html=1;strokeWidth=2;rounded=1;arcSize=11;" vertex="1" parent="1">
          <mxGeometry x="530" y="470" width="120" height="60" as="geometry" />
        </mxCell>
        <mxCell id="CNhgzBjjf0mTvzRWuVfc-4" value="" style="edgeStyle=orthogonalEdgeStyle;rounded=0;orthogonalLoop=1;jettySize=auto;html=1;" edge="1" parent="1" source="CNhgzBjjf0mTvzRWuVfc-1" target="CNhgzBjjf0mTvzRWuVfc-3">
          <mxGeometry relative="1" as="geometry" />
        </mxCell>
        <mxCell id="CNhgzBjjf0mTvzRWuVfc-1" value="ValorFinal" style="strokeWidth=2;html=1;shape=mxgraph.flowchart.display;whiteSpace=wrap;" vertex="1" parent="1">
          <mxGeometry x="740" y="470" width="100" height="60" as="geometry" />
        </mxCell>
        <mxCell id="CNhgzBjjf0mTvzRWuVfc-6" value="" style="edgeStyle=orthogonalEdgeStyle;rounded=0;orthogonalLoop=1;jettySize=auto;html=1;" edge="1" parent="1" source="CNhgzBjjf0mTvzRWuVfc-3" target="CNhgzBjjf0mTvzRWuVfc-5">
          <mxGeometry relative="1" as="geometry" />
        </mxCell>
        <mxCell id="CNhgzBjjf0mTvzRWuVfc-7" value="F" style="edgeLabel;html=1;align=center;verticalAlign=middle;resizable=0;points=[];" vertex="1" connectable="0" parent="CNhgzBjjf0mTvzRWuVfc-6">
          <mxGeometry x="-0.1699" y="-3" relative="1" as="geometry">
            <mxPoint as="offset" />
          </mxGeometry>
        </mxCell>
        <mxCell id="CNhgzBjjf0mTvzRWuVfc-9" value="" style="edgeStyle=orthogonalEdgeStyle;rounded=0;orthogonalLoop=1;jettySize=auto;html=1;entryX=0;entryY=0.5;entryDx=0;entryDy=0;entryPerimeter=0;" edge="1" parent="1" source="CNhgzBjjf0mTvzRWuVfc-3" target="EC_D6ULvOY_d8TTZUSdb-3">
          <mxGeometry relative="1" as="geometry">
            <mxPoint x="790" y="120" as="targetPoint" />
            <Array as="points">
              <mxPoint x="790" y="10" />
              <mxPoint x="510" y="10" />
              <mxPoint x="510" y="120" />
            </Array>
          </mxGeometry>
        </mxCell>
        <mxCell id="CNhgzBjjf0mTvzRWuVfc-10" value="V" style="edgeLabel;html=1;align=center;verticalAlign=middle;resizable=0;points=[];" vertex="1" connectable="0" parent="CNhgzBjjf0mTvzRWuVfc-9">
          <mxGeometry x="-0.1643" y="-2" relative="1" as="geometry">
            <mxPoint as="offset" />
          </mxGeometry>
        </mxCell>
        <mxCell id="CNhgzBjjf0mTvzRWuVfc-3" value="Deseja calcular o desconto para outra conta?" style="rhombus;whiteSpace=wrap;html=1;strokeWidth=2;" vertex="1" parent="1">
          <mxGeometry x="720" y="200" width="140" height="140" as="geometry" />
        </mxCell>
        <mxCell id="CNhgzBjjf0mTvzRWuVfc-5" value="FIM" style="strokeWidth=2;html=1;shape=mxgraph.flowchart.terminator;whiteSpace=wrap;" vertex="1" parent="1">
          <mxGeometry x="920" y="240" width="100" height="60" as="geometry" />
        </mxCell>
      </root>
    </mxGraphModel>
  </diagram>
  <diagram id="GqZz0EDXEGSYqb4a-bL9" name="4">
    <mxGraphModel dx="1567" dy="584" grid="1" gridSize="10" guides="1" tooltips="1" connect="1" arrows="1" fold="1" page="1" pageScale="1" pageWidth="827" pageHeight="1169" math="0" shadow="0">
      <root>
        <mxCell id="0" />
        <mxCell id="1" parent="0" />
        <mxCell id="vGilMSr-ppqVHzkB0Vnt-4" value="" style="edgeStyle=orthogonalEdgeStyle;rounded=0;orthogonalLoop=1;jettySize=auto;html=1;" parent="1" source="vGilMSr-ppqVHzkB0Vnt-2" target="vGilMSr-ppqVHzkB0Vnt-3" edge="1">
          <mxGeometry relative="1" as="geometry" />
        </mxCell>
        <mxCell id="vGilMSr-ppqVHzkB0Vnt-2" value="INÍCIO" style="strokeWidth=2;html=1;shape=mxgraph.flowchart.start_1;whiteSpace=wrap;" parent="1" vertex="1">
          <mxGeometry x="460" y="130" width="100" height="60" as="geometry" />
        </mxCell>
        <mxCell id="vGilMSr-ppqVHzkB0Vnt-6" value="" style="edgeStyle=orthogonalEdgeStyle;rounded=0;orthogonalLoop=1;jettySize=auto;html=1;" parent="1" source="vGilMSr-ppqVHzkB0Vnt-3" target="vGilMSr-ppqVHzkB0Vnt-5" edge="1">
          <mxGeometry relative="1" as="geometry" />
        </mxCell>
        <mxCell id="vGilMSr-ppqVHzkB0Vnt-3" value="&lt;div&gt;&lt;br&gt;&lt;/div&gt;Valor do Produto" style="html=1;strokeWidth=2;shape=manualInput;whiteSpace=wrap;rounded=1;size=26;arcSize=11;" parent="1" vertex="1">
          <mxGeometry x="460" y="210" width="100" height="60" as="geometry" />
        </mxCell>
        <mxCell id="vGilMSr-ppqVHzkB0Vnt-8" value="" style="edgeStyle=orthogonalEdgeStyle;rounded=0;orthogonalLoop=1;jettySize=auto;html=1;entryX=0;entryY=0.667;entryDx=0;entryDy=0;entryPerimeter=0;" parent="1" source="vGilMSr-ppqVHzkB0Vnt-5" target="9UNkox1VzqaXaOPUWY6F-4" edge="1">
          <mxGeometry relative="1" as="geometry">
            <mxPoint x="630" y="350" as="targetPoint" />
          </mxGeometry>
        </mxCell>
        <mxCell id="vGilMSr-ppqVHzkB0Vnt-15" value="" style="edgeStyle=orthogonalEdgeStyle;rounded=0;orthogonalLoop=1;jettySize=auto;html=1;" parent="1" source="vGilMSr-ppqVHzkB0Vnt-5" target="vGilMSr-ppqVHzkB0Vnt-14" edge="1">
          <mxGeometry relative="1" as="geometry" />
        </mxCell>
        <mxCell id="vGilMSr-ppqVHzkB0Vnt-18" value="F" style="edgeLabel;html=1;align=center;verticalAlign=middle;resizable=0;points=[];" parent="vGilMSr-ppqVHzkB0Vnt-15" vertex="1" connectable="0">
          <mxGeometry x="-0.0889" y="3" relative="1" as="geometry">
            <mxPoint as="offset" />
          </mxGeometry>
        </mxCell>
        <mxCell id="vGilMSr-ppqVHzkB0Vnt-5" value="Pagamento Parcelado?" style="strokeWidth=2;html=1;shape=mxgraph.flowchart.decision;whiteSpace=wrap;" parent="1" vertex="1">
          <mxGeometry x="460" y="300" width="100" height="100" as="geometry" />
        </mxCell>
        <mxCell id="vGilMSr-ppqVHzkB0Vnt-17" value="" style="edgeStyle=orthogonalEdgeStyle;rounded=0;orthogonalLoop=1;jettySize=auto;html=1;" parent="1" source="vGilMSr-ppqVHzkB0Vnt-14" target="vGilMSr-ppqVHzkB0Vnt-16" edge="1">
          <mxGeometry relative="1" as="geometry" />
        </mxCell>
        <mxCell id="vGilMSr-ppqVHzkB0Vnt-14" value="Total = Valor do Produto" style="whiteSpace=wrap;html=1;strokeWidth=2;" parent="1" vertex="1">
          <mxGeometry x="450" y="460" width="120" height="60" as="geometry" />
        </mxCell>
        <mxCell id="vGilMSr-ppqVHzkB0Vnt-20" value="" style="edgeStyle=orthogonalEdgeStyle;rounded=0;orthogonalLoop=1;jettySize=auto;html=1;entryX=0.5;entryY=1;entryDx=0;entryDy=0;entryPerimeter=0;" parent="1" source="vGilMSr-ppqVHzkB0Vnt-16" target="vGilMSr-ppqVHzkB0Vnt-19" edge="1">
          <mxGeometry relative="1" as="geometry">
            <Array as="points">
              <mxPoint x="510" y="730" />
              <mxPoint x="1210" y="730" />
            </Array>
          </mxGeometry>
        </mxCell>
        <mxCell id="vGilMSr-ppqVHzkB0Vnt-16" value="Total" style="strokeWidth=2;html=1;shape=mxgraph.flowchart.display;whiteSpace=wrap;" parent="1" vertex="1">
          <mxGeometry x="460" y="555" width="100" height="60" as="geometry" />
        </mxCell>
        <mxCell id="vGilMSr-ppqVHzkB0Vnt-19" value="FIM" style="strokeWidth=2;html=1;shape=mxgraph.flowchart.terminator;whiteSpace=wrap;" parent="1" vertex="1">
          <mxGeometry x="1160" y="660" width="100" height="60" as="geometry" />
        </mxCell>
        <mxCell id="vGilMSr-ppqVHzkB0Vnt-23" value="" style="edgeStyle=orthogonalEdgeStyle;rounded=0;orthogonalLoop=1;jettySize=auto;html=1;" parent="1" source="vGilMSr-ppqVHzkB0Vnt-21" target="vGilMSr-ppqVHzkB0Vnt-22" edge="1">
          <mxGeometry relative="1" as="geometry" />
        </mxCell>
        <mxCell id="vGilMSr-ppqVHzkB0Vnt-24" value="V" style="edgeLabel;html=1;align=center;verticalAlign=middle;resizable=0;points=[];" parent="vGilMSr-ppqVHzkB0Vnt-23" vertex="1" connectable="0">
          <mxGeometry x="-0.2762" y="-2" relative="1" as="geometry">
            <mxPoint as="offset" />
          </mxGeometry>
        </mxCell>
        <mxCell id="vGilMSr-ppqVHzkB0Vnt-29" value="" style="edgeStyle=orthogonalEdgeStyle;rounded=0;orthogonalLoop=1;jettySize=auto;html=1;" parent="1" source="vGilMSr-ppqVHzkB0Vnt-21" target="vGilMSr-ppqVHzkB0Vnt-28" edge="1">
          <mxGeometry relative="1" as="geometry" />
        </mxCell>
        <mxCell id="9UNkox1VzqaXaOPUWY6F-9" value="F" style="edgeLabel;html=1;align=center;verticalAlign=middle;resizable=0;points=[];" parent="vGilMSr-ppqVHzkB0Vnt-29" vertex="1" connectable="0">
          <mxGeometry x="-0.2494" y="2" relative="1" as="geometry">
            <mxPoint as="offset" />
          </mxGeometry>
        </mxCell>
        <mxCell id="vGilMSr-ppqVHzkB0Vnt-21" value="&lt;font style=&quot;font-size: 10px;&quot;&gt;ParcelaDesejada&amp;nbsp;&lt;/font&gt;&lt;div&gt;== 6&lt;/div&gt;" style="strokeWidth=2;html=1;shape=mxgraph.flowchart.decision;whiteSpace=wrap;" parent="1" vertex="1">
          <mxGeometry x="720" y="290" width="100" height="100" as="geometry" />
        </mxCell>
        <mxCell id="vGilMSr-ppqVHzkB0Vnt-37" value="" style="edgeStyle=orthogonalEdgeStyle;rounded=0;orthogonalLoop=1;jettySize=auto;html=1;" parent="1" source="vGilMSr-ppqVHzkB0Vnt-22" target="vGilMSr-ppqVHzkB0Vnt-36" edge="1">
          <mxGeometry relative="1" as="geometry" />
        </mxCell>
        <mxCell id="vGilMSr-ppqVHzkB0Vnt-22" value="acréscimo = (15 /100) * ValorProduto" style="whiteSpace=wrap;html=1;strokeWidth=2;" parent="1" vertex="1">
          <mxGeometry x="890" y="310" width="120" height="60" as="geometry" />
        </mxCell>
        <mxCell id="vGilMSr-ppqVHzkB0Vnt-31" value="V" style="edgeStyle=orthogonalEdgeStyle;rounded=0;orthogonalLoop=1;jettySize=auto;html=1;" parent="1" source="vGilMSr-ppqVHzkB0Vnt-28" target="vGilMSr-ppqVHzkB0Vnt-30" edge="1">
          <mxGeometry relative="1" as="geometry" />
        </mxCell>
        <mxCell id="9UNkox1VzqaXaOPUWY6F-7" value="" style="edgeStyle=orthogonalEdgeStyle;rounded=0;orthogonalLoop=1;jettySize=auto;html=1;entryX=0.5;entryY=0;entryDx=0;entryDy=0;" parent="1" source="vGilMSr-ppqVHzkB0Vnt-28" target="vGilMSr-ppqVHzkB0Vnt-52" edge="1">
          <mxGeometry relative="1" as="geometry">
            <mxPoint x="769.9999999999999" y="670" as="targetPoint" />
          </mxGeometry>
        </mxCell>
        <mxCell id="9UNkox1VzqaXaOPUWY6F-8" value="F" style="edgeLabel;html=1;align=center;verticalAlign=middle;resizable=0;points=[];" parent="9UNkox1VzqaXaOPUWY6F-7" vertex="1" connectable="0">
          <mxGeometry x="-0.3204" relative="1" as="geometry">
            <mxPoint as="offset" />
          </mxGeometry>
        </mxCell>
        <mxCell id="vGilMSr-ppqVHzkB0Vnt-28" value="ParcelaDesejada == 12" style="rhombus;whiteSpace=wrap;html=1;strokeWidth=2;" parent="1" vertex="1">
          <mxGeometry x="720" y="440" width="100" height="100" as="geometry" />
        </mxCell>
        <mxCell id="vGilMSr-ppqVHzkB0Vnt-41" value="" style="edgeStyle=orthogonalEdgeStyle;rounded=0;orthogonalLoop=1;jettySize=auto;html=1;" parent="1" source="vGilMSr-ppqVHzkB0Vnt-30" target="vGilMSr-ppqVHzkB0Vnt-40" edge="1">
          <mxGeometry relative="1" as="geometry" />
        </mxCell>
        <mxCell id="vGilMSr-ppqVHzkB0Vnt-30" value="acréscimo = (25 / 100)&lt;div&gt;* ValorProduto&lt;/div&gt;" style="whiteSpace=wrap;html=1;strokeWidth=2;" parent="1" vertex="1">
          <mxGeometry x="890" y="460" width="120" height="60" as="geometry" />
        </mxCell>
        <mxCell id="vGilMSr-ppqVHzkB0Vnt-39" value="" style="edgeStyle=orthogonalEdgeStyle;rounded=0;orthogonalLoop=1;jettySize=auto;html=1;" parent="1" source="vGilMSr-ppqVHzkB0Vnt-36" target="vGilMSr-ppqVHzkB0Vnt-38" edge="1">
          <mxGeometry relative="1" as="geometry" />
        </mxCell>
        <mxCell id="vGilMSr-ppqVHzkB0Vnt-36" value="TotalParcelas = (ValorProduto + acréscimo) / 6" style="whiteSpace=wrap;html=1;strokeWidth=2;" parent="1" vertex="1">
          <mxGeometry x="1040" y="310" width="120" height="60" as="geometry" />
        </mxCell>
        <mxCell id="vGilMSr-ppqVHzkB0Vnt-47" value="" style="edgeStyle=orthogonalEdgeStyle;rounded=0;orthogonalLoop=1;jettySize=auto;html=1;entryX=1;entryY=0.5;entryDx=0;entryDy=0;entryPerimeter=0;exitX=1;exitY=0.5;exitDx=0;exitDy=0;exitPerimeter=0;" parent="1" source="vGilMSr-ppqVHzkB0Vnt-38" target="vGilMSr-ppqVHzkB0Vnt-19" edge="1">
          <mxGeometry relative="1" as="geometry">
            <mxPoint x="1420.0000000000005" y="360" as="targetPoint" />
            <Array as="points">
              <mxPoint x="1306.15" y="340" />
              <mxPoint x="1306.15" y="690" />
            </Array>
          </mxGeometry>
        </mxCell>
        <mxCell id="vGilMSr-ppqVHzkB0Vnt-38" value="TotalParcelas" style="strokeWidth=2;html=1;shape=mxgraph.flowchart.display;whiteSpace=wrap;" parent="1" vertex="1">
          <mxGeometry x="1190" y="310" width="100" height="60" as="geometry" />
        </mxCell>
        <mxCell id="vGilMSr-ppqVHzkB0Vnt-43" value="" style="edgeStyle=orthogonalEdgeStyle;rounded=0;orthogonalLoop=1;jettySize=auto;html=1;" parent="1" source="vGilMSr-ppqVHzkB0Vnt-40" target="vGilMSr-ppqVHzkB0Vnt-42" edge="1">
          <mxGeometry relative="1" as="geometry" />
        </mxCell>
        <mxCell id="vGilMSr-ppqVHzkB0Vnt-40" value="TotalParcelas = (ValorProduto + acréscimo) / 12" style="whiteSpace=wrap;html=1;strokeWidth=2;" parent="1" vertex="1">
          <mxGeometry x="1040" y="460" width="120" height="60" as="geometry" />
        </mxCell>
        <mxCell id="vGilMSr-ppqVHzkB0Vnt-45" value="" style="edgeStyle=orthogonalEdgeStyle;rounded=0;orthogonalLoop=1;jettySize=auto;html=1;entryX=0.5;entryY=0;entryDx=0;entryDy=0;entryPerimeter=0;" parent="1" source="vGilMSr-ppqVHzkB0Vnt-42" target="vGilMSr-ppqVHzkB0Vnt-19" edge="1">
          <mxGeometry relative="1" as="geometry">
            <mxPoint x="1420.0000000000005" y="490" as="targetPoint" />
          </mxGeometry>
        </mxCell>
        <mxCell id="vGilMSr-ppqVHzkB0Vnt-42" value="TotalParcelas" style="strokeWidth=2;html=1;shape=mxgraph.flowchart.display;whiteSpace=wrap;" parent="1" vertex="1">
          <mxGeometry x="1190" y="460" width="100" height="60" as="geometry" />
        </mxCell>
        <mxCell id="vGilMSr-ppqVHzkB0Vnt-56" value="" style="edgeStyle=orthogonalEdgeStyle;rounded=0;orthogonalLoop=1;jettySize=auto;html=1;" parent="1" source="vGilMSr-ppqVHzkB0Vnt-48" target="vGilMSr-ppqVHzkB0Vnt-55" edge="1">
          <mxGeometry relative="1" as="geometry" />
        </mxCell>
        <mxCell id="vGilMSr-ppqVHzkB0Vnt-48" value="TotalParcelas = ValorProduto / Parcelas" style="whiteSpace=wrap;html=1;strokeWidth=2;" parent="1" vertex="1">
          <mxGeometry x="710" y="660" width="120" height="60" as="geometry" />
        </mxCell>
        <mxCell id="vGilMSr-ppqVHzkB0Vnt-54" value="" style="edgeStyle=orthogonalEdgeStyle;rounded=0;orthogonalLoop=1;jettySize=auto;html=1;" parent="1" source="vGilMSr-ppqVHzkB0Vnt-52" target="vGilMSr-ppqVHzkB0Vnt-48" edge="1">
          <mxGeometry relative="1" as="geometry" />
        </mxCell>
        <mxCell id="vGilMSr-ppqVHzkB0Vnt-52" value="Parcelas = ParcelaDesejada" style="whiteSpace=wrap;html=1;strokeWidth=2;" parent="1" vertex="1">
          <mxGeometry x="710" y="570" width="120" height="60" as="geometry" />
        </mxCell>
        <mxCell id="vGilMSr-ppqVHzkB0Vnt-58" value="" style="edgeStyle=orthogonalEdgeStyle;rounded=0;orthogonalLoop=1;jettySize=auto;html=1;entryX=0;entryY=0.5;entryDx=0;entryDy=0;entryPerimeter=0;" parent="1" source="vGilMSr-ppqVHzkB0Vnt-55" target="vGilMSr-ppqVHzkB0Vnt-19" edge="1">
          <mxGeometry relative="1" as="geometry">
            <mxPoint x="1090" y="690" as="targetPoint" />
          </mxGeometry>
        </mxCell>
        <mxCell id="vGilMSr-ppqVHzkB0Vnt-55" value="TotalParcelas" style="strokeWidth=2;html=1;shape=mxgraph.flowchart.display;whiteSpace=wrap;" parent="1" vertex="1">
          <mxGeometry x="900" y="660" width="100" height="60" as="geometry" />
        </mxCell>
        <mxCell id="9UNkox1VzqaXaOPUWY6F-5" value="" style="edgeStyle=orthogonalEdgeStyle;rounded=0;orthogonalLoop=1;jettySize=auto;html=1;" parent="1" source="9UNkox1VzqaXaOPUWY6F-4" target="vGilMSr-ppqVHzkB0Vnt-21" edge="1">
          <mxGeometry relative="1" as="geometry" />
        </mxCell>
        <mxCell id="9UNkox1VzqaXaOPUWY6F-4" value="&lt;div&gt;&lt;font style=&quot;font-size: 10px;&quot;&gt;&lt;br&gt;&lt;/font&gt;&lt;/div&gt;&lt;font style=&quot;font-size: 10px;&quot;&gt;Em quantas vezes você deseja parcelar?&lt;/font&gt;" style="html=1;strokeWidth=2;shape=manualInput;whiteSpace=wrap;rounded=1;size=26;arcSize=11;" parent="1" vertex="1">
          <mxGeometry x="580" y="310" width="100" height="60" as="geometry" />
        </mxCell>
      </root>
    </mxGraphModel>
  </diagram>
  <diagram id="Gt-zXOQO260r4dIpklU2" name="recuperacao">
    <mxGraphModel dx="874" dy="462" grid="1" gridSize="10" guides="1" tooltips="1" connect="1" arrows="1" fold="1" page="1" pageScale="1" pageWidth="827" pageHeight="1169" math="0" shadow="0">
      <root>
        <mxCell id="0" />
        <mxCell id="1" parent="0" />
      </root>
    </mxGraphModel>
  </diagram>
  <diagram id="PSH1U6TJ121goV2uPyPD" name="1">
    <mxGraphModel dx="1114" dy="462" grid="1" gridSize="10" guides="1" tooltips="1" connect="1" arrows="1" fold="1" page="1" pageScale="1" pageWidth="827" pageHeight="1169" math="0" shadow="0">
      <root>
        <mxCell id="0" />
        <mxCell id="1" parent="0" />
        <mxCell id="YH0FsMz6SMr1sI9yK0-D-11" value="" style="edgeStyle=orthogonalEdgeStyle;rounded=0;orthogonalLoop=1;jettySize=auto;html=1;" parent="1" source="GvVYb31PndAitQJ7KshJ-1" target="YH0FsMz6SMr1sI9yK0-D-10" edge="1">
          <mxGeometry relative="1" as="geometry" />
        </mxCell>
        <mxCell id="GvVYb31PndAitQJ7KshJ-1" value="INICIO" style="strokeWidth=2;html=1;shape=mxgraph.flowchart.start_1;whiteSpace=wrap;" parent="1" vertex="1">
          <mxGeometry x="380" y="110" width="100" height="60" as="geometry" />
        </mxCell>
        <mxCell id="YH0FsMz6SMr1sI9yK0-D-5" value="" style="edgeStyle=orthogonalEdgeStyle;rounded=0;orthogonalLoop=1;jettySize=auto;html=1;" parent="1" source="YH0FsMz6SMr1sI9yK0-D-2" target="YH0FsMz6SMr1sI9yK0-D-4" edge="1">
          <mxGeometry relative="1" as="geometry" />
        </mxCell>
        <mxCell id="YH0FsMz6SMr1sI9yK0-D-2" value="&lt;div&gt;&lt;br&gt;&lt;/div&gt;&lt;div&gt;Nome do produto&lt;/div&gt;" style="html=1;strokeWidth=2;shape=manualInput;whiteSpace=wrap;rounded=1;size=26;arcSize=11;" parent="1" vertex="1">
          <mxGeometry x="380" y="320" width="100" height="60" as="geometry" />
        </mxCell>
        <mxCell id="YH0FsMz6SMr1sI9yK0-D-7" value="" style="edgeStyle=orthogonalEdgeStyle;rounded=0;orthogonalLoop=1;jettySize=auto;html=1;" parent="1" source="YH0FsMz6SMr1sI9yK0-D-4" target="YH0FsMz6SMr1sI9yK0-D-6" edge="1">
          <mxGeometry relative="1" as="geometry" />
        </mxCell>
        <mxCell id="YH0FsMz6SMr1sI9yK0-D-4" value="&lt;div&gt;&lt;br&gt;&lt;/div&gt;&lt;div&gt;Quantidade&lt;/div&gt;" style="html=1;strokeWidth=2;shape=manualInput;whiteSpace=wrap;rounded=1;size=26;arcSize=11;" parent="1" vertex="1">
          <mxGeometry x="380" y="400" width="100" height="60" as="geometry" />
        </mxCell>
        <mxCell id="YH0FsMz6SMr1sI9yK0-D-9" value="" style="edgeStyle=orthogonalEdgeStyle;rounded=0;orthogonalLoop=1;jettySize=auto;html=1;" parent="1" source="YH0FsMz6SMr1sI9yK0-D-6" target="YH0FsMz6SMr1sI9yK0-D-8" edge="1">
          <mxGeometry relative="1" as="geometry" />
        </mxCell>
        <mxCell id="YH0FsMz6SMr1sI9yK0-D-6" value="&lt;div&gt;&lt;br&gt;&lt;/div&gt;&lt;div&gt;Preço unitário&lt;/div&gt;" style="html=1;strokeWidth=2;shape=manualInput;whiteSpace=wrap;rounded=1;size=26;arcSize=11;" parent="1" vertex="1">
          <mxGeometry x="380" y="490" width="100" height="60" as="geometry" />
        </mxCell>
        <mxCell id="YH0FsMz6SMr1sI9yK0-D-23" value="" style="edgeStyle=orthogonalEdgeStyle;rounded=0;orthogonalLoop=1;jettySize=auto;html=1;" parent="1" source="YH0FsMz6SMr1sI9yK0-D-8" target="YH0FsMz6SMr1sI9yK0-D-22" edge="1">
          <mxGeometry relative="1" as="geometry" />
        </mxCell>
        <mxCell id="YH0FsMz6SMr1sI9yK0-D-8" value="Total = quantidade * precounitario" style="whiteSpace=wrap;html=1;strokeWidth=2;rounded=1;arcSize=11;" parent="1" vertex="1">
          <mxGeometry x="520" y="490" width="120" height="60" as="geometry" />
        </mxCell>
        <mxCell id="YH0FsMz6SMr1sI9yK0-D-13" value="" style="edgeStyle=orthogonalEdgeStyle;rounded=0;orthogonalLoop=1;jettySize=auto;html=1;" parent="1" source="YH0FsMz6SMr1sI9yK0-D-10" target="YH0FsMz6SMr1sI9yK0-D-2" edge="1">
          <mxGeometry relative="1" as="geometry" />
        </mxCell>
        <mxCell id="YH0FsMz6SMr1sI9yK0-D-10" value="" style="strokeWidth=2;html=1;shape=mxgraph.flowchart.start_2;whiteSpace=wrap;" parent="1" vertex="1">
          <mxGeometry x="410" y="230" width="40" height="40" as="geometry" />
        </mxCell>
        <mxCell id="YH0FsMz6SMr1sI9yK0-D-17" value="" style="edgeStyle=orthogonalEdgeStyle;rounded=0;orthogonalLoop=1;jettySize=auto;html=1;" parent="1" source="YH0FsMz6SMr1sI9yK0-D-14" target="YH0FsMz6SMr1sI9yK0-D-16" edge="1">
          <mxGeometry relative="1" as="geometry" />
        </mxCell>
        <mxCell id="YH0FsMz6SMr1sI9yK0-D-18" value="F" style="edgeLabel;html=1;align=center;verticalAlign=middle;resizable=0;points=[];" parent="YH0FsMz6SMr1sI9yK0-D-17" vertex="1" connectable="0">
          <mxGeometry x="-0.2867" relative="1" as="geometry">
            <mxPoint as="offset" />
          </mxGeometry>
        </mxCell>
        <mxCell id="YH0FsMz6SMr1sI9yK0-D-20" value="" style="edgeStyle=orthogonalEdgeStyle;rounded=0;orthogonalLoop=1;jettySize=auto;html=1;entryX=1;entryY=0.5;entryDx=0;entryDy=0;entryPerimeter=0;exitX=0.5;exitY=0;exitDx=0;exitDy=0;" parent="1" source="YH0FsMz6SMr1sI9yK0-D-14" target="YH0FsMz6SMr1sI9yK0-D-10" edge="1">
          <mxGeometry relative="1" as="geometry">
            <mxPoint x="520" y="250" as="targetPoint" />
            <Array as="points">
              <mxPoint x="580" y="250" />
            </Array>
          </mxGeometry>
        </mxCell>
        <mxCell id="YH0FsMz6SMr1sI9yK0-D-21" value="V" style="edgeLabel;html=1;align=center;verticalAlign=middle;resizable=0;points=[];" parent="YH0FsMz6SMr1sI9yK0-D-20" vertex="1" connectable="0">
          <mxGeometry x="-0.1221" y="-2" relative="1" as="geometry">
            <mxPoint as="offset" />
          </mxGeometry>
        </mxCell>
        <mxCell id="YH0FsMz6SMr1sI9yK0-D-14" value="Deseja registrar outra venda?" style="rhombus;whiteSpace=wrap;html=1;strokeWidth=2;rounded=1;arcSize=11;" parent="1" vertex="1">
          <mxGeometry x="530" y="260" width="100" height="100" as="geometry" />
        </mxCell>
        <mxCell id="YH0FsMz6SMr1sI9yK0-D-16" value="FIM" style="strokeWidth=2;html=1;shape=mxgraph.flowchart.terminator;whiteSpace=wrap;" parent="1" vertex="1">
          <mxGeometry x="700" y="280" width="100" height="60" as="geometry" />
        </mxCell>
        <mxCell id="YH0FsMz6SMr1sI9yK0-D-24" value="" style="edgeStyle=orthogonalEdgeStyle;rounded=0;orthogonalLoop=1;jettySize=auto;html=1;" parent="1" source="YH0FsMz6SMr1sI9yK0-D-22" target="YH0FsMz6SMr1sI9yK0-D-14" edge="1">
          <mxGeometry relative="1" as="geometry" />
        </mxCell>
        <mxCell id="YH0FsMz6SMr1sI9yK0-D-22" value="Total" style="strokeWidth=2;html=1;shape=mxgraph.flowchart.display;whiteSpace=wrap;" parent="1" vertex="1">
          <mxGeometry x="530" y="390" width="100" height="60" as="geometry" />
        </mxCell>
        <mxCell id="YH0FsMz6SMr1sI9yK0-D-28" value="&lt;ol type=&quot;1&quot; start=&quot;1&quot; style=&quot;margin-top:0cm&quot;&gt;&lt;li style=&quot;color:#5F6368;margin-bottom:0cm;margin-bottom:.0001pt;&lt;br/&gt;     line-height:normal;mso-list:l0 level1 lfo1&quot; class=&quot;MsoNormal&quot;&gt;&lt;span style=&quot;font-size:10.0pt;&lt;br/&gt;     font-family:Roboto;mso-fareast-font-family:Roboto;mso-bidi-font-family:&lt;br/&gt;     Roboto;background:white;mso-highlight:white&quot;&gt;Elabore um fluxograma para um&lt;br&gt;     sistema que registra vendas de produtos. O programa deve permitir ao&lt;br&gt;     vendedor inserir o nome do produto, a quantidade e o preço unitário. Em&lt;br&gt;     seguida, deve-se calcular o valor total da venda. O programa deve&lt;br&gt;     perguntar se o vendedor deseja registrar outra venda e repetir o processo&lt;br&gt;     se necessário.&lt;/span&gt;&lt;/li&gt;&lt;/ol&gt;" style="text;strokeColor=none;align=center;fillColor=none;html=1;verticalAlign=middle;whiteSpace=wrap;rounded=0;" parent="1" vertex="1">
          <mxGeometry x="827" y="230" width="340" height="200" as="geometry" />
        </mxCell>
      </root>
    </mxGraphModel>
  </diagram>
  <diagram id="cyOx2fYJW-ySkXfi1PeZ" name="2">
    <mxGraphModel dx="1591" dy="1829" grid="1" gridSize="10" guides="1" tooltips="1" connect="1" arrows="1" fold="1" page="1" pageScale="1" pageWidth="827" pageHeight="1169" math="0" shadow="0">
      <root>
        <mxCell id="0" />
        <mxCell id="1" parent="0" />
        <mxCell id="4xUk8KkESar3cGra_lzE-1" value="&lt;ol type=&quot;1&quot; start=&quot;1&quot; style=&quot;margin-top:0cm&quot;&gt;&lt;li style=&quot;margin-top:12.0pt;margin-bottom:12.0pt;line-height:&lt;br/&gt;     normal;mso-list:l0 level1 lfo1&quot; class=&quot;MsoNormal&quot;&gt;&lt;span style=&quot;font-size:10.0pt;font-family:&lt;br/&gt;     Roboto;mso-fareast-font-family:Roboto;mso-bidi-font-family:Roboto;&lt;br/&gt;     color:#5F6368;background:white;mso-highlight:white&quot;&gt;Crie um fluxograma&lt;br/&gt;     para um programa que gerencie o empréstimo de livros. O programa deve&lt;br/&gt;     permitir ao usuário solicitar um livro, verificar se o livro está&lt;br/&gt;     disponível, se o livro estiver disponível e exibir uma mensagem de erro se&lt;br/&gt;     não estiver. O programa deve encerrar após o registro do empréstimo ou a&lt;br/&gt;     exibição da mensagem de erro.&lt;/span&gt;&lt;span style=&quot;font-size:10.0pt;&lt;br/&gt;     font-family:&amp;quot;Arial&amp;quot;,sans-serif;mso-fareast-font-family:Arial&quot;&gt;&lt;/span&gt;&lt;/li&gt;&lt;/ol&gt;&lt;br/&gt;&lt;div&gt;&lt;br/&gt;&lt;/div&gt;" style="text;strokeColor=none;align=center;fillColor=none;html=1;verticalAlign=middle;whiteSpace=wrap;rounded=0;" parent="1" vertex="1">
          <mxGeometry x="440" y="-20" width="350" height="210" as="geometry" />
        </mxCell>
        <mxCell id="4xUk8KkESar3cGra_lzE-4" value="" style="edgeStyle=orthogonalEdgeStyle;rounded=0;orthogonalLoop=1;jettySize=auto;html=1;" parent="1" source="4xUk8KkESar3cGra_lzE-2" target="4xUk8KkESar3cGra_lzE-3" edge="1">
          <mxGeometry relative="1" as="geometry" />
        </mxCell>
        <mxCell id="4xUk8KkESar3cGra_lzE-2" value="INICIO" style="strokeWidth=2;html=1;shape=mxgraph.flowchart.start_1;whiteSpace=wrap;" parent="1" vertex="1">
          <mxGeometry x="330" y="20" width="100" height="60" as="geometry" />
        </mxCell>
        <mxCell id="4xUk8KkESar3cGra_lzE-8" value="" style="edgeStyle=orthogonalEdgeStyle;rounded=0;orthogonalLoop=1;jettySize=auto;html=1;" parent="1" source="4xUk8KkESar3cGra_lzE-3" target="4xUk8KkESar3cGra_lzE-7" edge="1">
          <mxGeometry relative="1" as="geometry" />
        </mxCell>
        <mxCell id="4xUk8KkESar3cGra_lzE-3" value="&lt;div&gt;&lt;br&gt;&lt;/div&gt;&lt;div&gt;Nome do livro&lt;br&gt;&lt;/div&gt;" style="html=1;strokeWidth=2;shape=manualInput;whiteSpace=wrap;rounded=1;size=26;arcSize=11;" parent="1" vertex="1">
          <mxGeometry x="330" y="100" width="100" height="60" as="geometry" />
        </mxCell>
        <mxCell id="4xUk8KkESar3cGra_lzE-10" value="" style="edgeStyle=orthogonalEdgeStyle;rounded=0;orthogonalLoop=1;jettySize=auto;html=1;" parent="1" source="4xUk8KkESar3cGra_lzE-7" target="4xUk8KkESar3cGra_lzE-9" edge="1">
          <mxGeometry relative="1" as="geometry" />
        </mxCell>
        <mxCell id="4xUk8KkESar3cGra_lzE-16" value="V" style="edgeLabel;html=1;align=center;verticalAlign=middle;resizable=0;points=[];" parent="4xUk8KkESar3cGra_lzE-10" vertex="1" connectable="0">
          <mxGeometry x="-0.28" y="1" relative="1" as="geometry">
            <mxPoint as="offset" />
          </mxGeometry>
        </mxCell>
        <mxCell id="4xUk8KkESar3cGra_lzE-12" value="" style="edgeStyle=orthogonalEdgeStyle;rounded=0;orthogonalLoop=1;jettySize=auto;html=1;" parent="1" source="4xUk8KkESar3cGra_lzE-7" target="4xUk8KkESar3cGra_lzE-11" edge="1">
          <mxGeometry relative="1" as="geometry" />
        </mxCell>
        <mxCell id="4xUk8KkESar3cGra_lzE-17" value="F" style="edgeLabel;html=1;align=center;verticalAlign=middle;resizable=0;points=[];" parent="4xUk8KkESar3cGra_lzE-12" vertex="1" connectable="0">
          <mxGeometry x="-0.56" y="1" relative="1" as="geometry">
            <mxPoint as="offset" />
          </mxGeometry>
        </mxCell>
        <mxCell id="4xUk8KkESar3cGra_lzE-7" value="Livro disponível" style="rhombus;whiteSpace=wrap;html=1;strokeWidth=2;rounded=1;arcSize=11;" parent="1" vertex="1">
          <mxGeometry x="330" y="190" width="100" height="100" as="geometry" />
        </mxCell>
        <mxCell id="4xUk8KkESar3cGra_lzE-14" value="" style="edgeStyle=orthogonalEdgeStyle;rounded=0;orthogonalLoop=1;jettySize=auto;html=1;" parent="1" source="4xUk8KkESar3cGra_lzE-9" target="4xUk8KkESar3cGra_lzE-13" edge="1">
          <mxGeometry relative="1" as="geometry" />
        </mxCell>
        <mxCell id="4xUk8KkESar3cGra_lzE-9" value="&lt;font style=&quot;font-size: 10px;&quot;&gt;Livro disponível, empréstimo realizado &lt;/font&gt;" style="strokeWidth=2;html=1;shape=mxgraph.flowchart.display;whiteSpace=wrap;" parent="1" vertex="1">
          <mxGeometry x="480" y="210" width="100" height="60" as="geometry" />
        </mxCell>
        <mxCell id="4xUk8KkESar3cGra_lzE-15" value="" style="edgeStyle=orthogonalEdgeStyle;rounded=0;orthogonalLoop=1;jettySize=auto;html=1;" parent="1" source="4xUk8KkESar3cGra_lzE-11" target="4xUk8KkESar3cGra_lzE-13" edge="1">
          <mxGeometry relative="1" as="geometry" />
        </mxCell>
        <mxCell id="4xUk8KkESar3cGra_lzE-11" value="Erro, livro não disponível" style="strokeWidth=2;html=1;shape=mxgraph.flowchart.display;whiteSpace=wrap;" parent="1" vertex="1">
          <mxGeometry x="330" y="340" width="100" height="60" as="geometry" />
        </mxCell>
        <mxCell id="4xUk8KkESar3cGra_lzE-13" value="FIM" style="strokeWidth=2;html=1;shape=mxgraph.flowchart.terminator;whiteSpace=wrap;" parent="1" vertex="1">
          <mxGeometry x="480" y="340" width="100" height="60" as="geometry" />
        </mxCell>
      </root>
    </mxGraphModel>
  </diagram>
  <diagram id="i4WbgueOzjwZ24Zi2HG_" name="3">
    <mxGraphModel dx="1114" dy="462" grid="1" gridSize="10" guides="1" tooltips="1" connect="1" arrows="1" fold="1" page="1" pageScale="1" pageWidth="827" pageHeight="1169" math="0" shadow="0">
      <root>
        <mxCell id="0" />
        <mxCell id="1" parent="0" />
        <mxCell id="Y-htQPgQyj18bTdB9KHy-1" value="&lt;ol type=&quot;1&quot; start=&quot;1&quot; style=&quot;margin-top:0cm&quot;&gt;&lt;li style=&quot;margin-top:12.0pt;margin-bottom:12.0pt;line-height:&lt;br/&gt;     normal;mso-list:l0 level1 lfo1&quot; class=&quot;MsoNormal&quot;&gt;&lt;span style=&quot;font-size:10.0pt;font-family:&lt;br/&gt;     Roboto;mso-fareast-font-family:Roboto;mso-bidi-font-family:Roboto;&lt;br/&gt;     color:#5F6368;background:white;mso-highlight:white&quot;&gt;Crie um fluxograma&lt;br&gt;     para um programa que calcule o imposto devido com base no valor da compra.&lt;br&gt;     O programa deve solicitar o valor da compra e a taxa de imposto, calcular&lt;br&gt;     o imposto, e exibir o valor total a ser pago. O programa deve perguntar se&lt;br&gt;     o usuário deseja calcular o imposto para outra compra e repetir o processo&lt;br&gt;     se necessário.&lt;/span&gt;&lt;/li&gt;&lt;/ol&gt;" style="text;strokeColor=none;align=center;fillColor=none;html=1;verticalAlign=middle;whiteSpace=wrap;rounded=0;" parent="1" vertex="1">
          <mxGeometry x="330" y="80" width="310" height="210" as="geometry" />
        </mxCell>
        <mxCell id="Y-htQPgQyj18bTdB9KHy-5" value="" style="edgeStyle=orthogonalEdgeStyle;rounded=0;orthogonalLoop=1;jettySize=auto;html=1;" parent="1" source="Y-htQPgQyj18bTdB9KHy-2" target="Y-htQPgQyj18bTdB9KHy-4" edge="1">
          <mxGeometry relative="1" as="geometry" />
        </mxCell>
        <mxCell id="Y-htQPgQyj18bTdB9KHy-2" value="INICIO" style="strokeWidth=2;html=1;shape=mxgraph.flowchart.start_1;whiteSpace=wrap;" parent="1" vertex="1">
          <mxGeometry x="125" y="100" width="90" height="60" as="geometry" />
        </mxCell>
        <mxCell id="Y-htQPgQyj18bTdB9KHy-8" value="" style="edgeStyle=orthogonalEdgeStyle;rounded=0;orthogonalLoop=1;jettySize=auto;html=1;" parent="1" source="Y-htQPgQyj18bTdB9KHy-4" target="Y-htQPgQyj18bTdB9KHy-6" edge="1">
          <mxGeometry relative="1" as="geometry" />
        </mxCell>
        <mxCell id="Y-htQPgQyj18bTdB9KHy-4" value="" style="verticalLabelPosition=bottom;verticalAlign=top;html=1;shape=mxgraph.flowchart.on-page_reference;" parent="1" vertex="1">
          <mxGeometry x="150" y="190" width="40" height="40" as="geometry" />
        </mxCell>
        <mxCell id="Y-htQPgQyj18bTdB9KHy-10" value="" style="edgeStyle=orthogonalEdgeStyle;rounded=0;orthogonalLoop=1;jettySize=auto;html=1;" parent="1" source="Y-htQPgQyj18bTdB9KHy-6" target="Y-htQPgQyj18bTdB9KHy-9" edge="1">
          <mxGeometry relative="1" as="geometry" />
        </mxCell>
        <mxCell id="Y-htQPgQyj18bTdB9KHy-6" value="&lt;div&gt;&lt;br&gt;&lt;/div&gt;&lt;div&gt;Valor da compra&lt;/div&gt;" style="html=1;strokeWidth=2;shape=manualInput;whiteSpace=wrap;rounded=1;size=26;arcSize=11;" parent="1" vertex="1">
          <mxGeometry x="120" y="250" width="100" height="60" as="geometry" />
        </mxCell>
        <mxCell id="Y-htQPgQyj18bTdB9KHy-12" value="" style="edgeStyle=orthogonalEdgeStyle;rounded=0;orthogonalLoop=1;jettySize=auto;html=1;" parent="1" source="Y-htQPgQyj18bTdB9KHy-9" target="Y-htQPgQyj18bTdB9KHy-11" edge="1">
          <mxGeometry relative="1" as="geometry" />
        </mxCell>
        <mxCell id="Y-htQPgQyj18bTdB9KHy-9" value="&lt;br&gt;&lt;div&gt;Taxa de imposto&lt;/div&gt;" style="html=1;strokeWidth=2;shape=manualInput;whiteSpace=wrap;rounded=1;size=26;arcSize=11;" parent="1" vertex="1">
          <mxGeometry x="120" y="330" width="100" height="60" as="geometry" />
        </mxCell>
        <mxCell id="Y-htQPgQyj18bTdB9KHy-14" value="" style="edgeStyle=orthogonalEdgeStyle;rounded=0;orthogonalLoop=1;jettySize=auto;html=1;" parent="1" source="Y-htQPgQyj18bTdB9KHy-11" target="Y-htQPgQyj18bTdB9KHy-13" edge="1">
          <mxGeometry relative="1" as="geometry" />
        </mxCell>
        <mxCell id="Y-htQPgQyj18bTdB9KHy-11" value="imposto = valor * (taxa / 100) " style="whiteSpace=wrap;html=1;strokeWidth=2;rounded=1;arcSize=11;" parent="1" vertex="1">
          <mxGeometry x="110" y="420" width="120" height="60" as="geometry" />
        </mxCell>
        <mxCell id="Y-htQPgQyj18bTdB9KHy-16" value="" style="edgeStyle=orthogonalEdgeStyle;rounded=0;orthogonalLoop=1;jettySize=auto;html=1;" parent="1" source="Y-htQPgQyj18bTdB9KHy-13" target="Y-htQPgQyj18bTdB9KHy-15" edge="1">
          <mxGeometry relative="1" as="geometry" />
        </mxCell>
        <mxCell id="Y-htQPgQyj18bTdB9KHy-13" value="ValorTotal = valor + imposto" style="whiteSpace=wrap;html=1;strokeWidth=2;rounded=1;arcSize=11;" parent="1" vertex="1">
          <mxGeometry x="110" y="510" width="120" height="60" as="geometry" />
        </mxCell>
        <mxCell id="Y-htQPgQyj18bTdB9KHy-18" value="" style="edgeStyle=orthogonalEdgeStyle;rounded=0;orthogonalLoop=1;jettySize=auto;html=1;" parent="1" source="Y-htQPgQyj18bTdB9KHy-15" target="Y-htQPgQyj18bTdB9KHy-17" edge="1">
          <mxGeometry relative="1" as="geometry" />
        </mxCell>
        <mxCell id="Y-htQPgQyj18bTdB9KHy-15" value="ValorTotal" style="strokeWidth=2;html=1;shape=mxgraph.flowchart.display;whiteSpace=wrap;" parent="1" vertex="1">
          <mxGeometry x="265" y="510" width="100" height="60" as="geometry" />
        </mxCell>
        <mxCell id="Y-htQPgQyj18bTdB9KHy-20" value="" style="edgeStyle=orthogonalEdgeStyle;rounded=0;orthogonalLoop=1;jettySize=auto;html=1;" parent="1" source="Y-htQPgQyj18bTdB9KHy-17" target="Y-htQPgQyj18bTdB9KHy-19" edge="1">
          <mxGeometry relative="1" as="geometry" />
        </mxCell>
        <mxCell id="Y-htQPgQyj18bTdB9KHy-24" value="F" style="edgeLabel;html=1;align=center;verticalAlign=middle;resizable=0;points=[];" parent="Y-htQPgQyj18bTdB9KHy-20" vertex="1" connectable="0">
          <mxGeometry x="-0.2727" y="2" relative="1" as="geometry">
            <mxPoint as="offset" />
          </mxGeometry>
        </mxCell>
        <mxCell id="Y-htQPgQyj18bTdB9KHy-22" value="" style="edgeStyle=orthogonalEdgeStyle;rounded=0;orthogonalLoop=1;jettySize=auto;html=1;entryX=1;entryY=0.5;entryDx=0;entryDy=0;entryPerimeter=0;" parent="1" source="Y-htQPgQyj18bTdB9KHy-17" target="Y-htQPgQyj18bTdB9KHy-4" edge="1">
          <mxGeometry relative="1" as="geometry">
            <mxPoint x="320" y="215" as="targetPoint" />
            <Array as="points">
              <mxPoint x="320" y="210" />
            </Array>
          </mxGeometry>
        </mxCell>
        <mxCell id="Y-htQPgQyj18bTdB9KHy-23" value="V" style="edgeLabel;html=1;align=center;verticalAlign=middle;resizable=0;points=[];" parent="Y-htQPgQyj18bTdB9KHy-22" vertex="1" connectable="0">
          <mxGeometry x="-0.0037" y="-2" relative="1" as="geometry">
            <mxPoint y="1" as="offset" />
          </mxGeometry>
        </mxCell>
        <mxCell id="Y-htQPgQyj18bTdB9KHy-17" value="&lt;font style=&quot;font-size: 10px;&quot;&gt;Deseja calcular o imposto para outra compra&lt;/font&gt;" style="rhombus;whiteSpace=wrap;html=1;strokeWidth=2;" parent="1" vertex="1">
          <mxGeometry x="260" y="290" width="110" height="110" as="geometry" />
        </mxCell>
        <mxCell id="Y-htQPgQyj18bTdB9KHy-19" value="FIM" style="strokeWidth=2;html=1;shape=mxgraph.flowchart.terminator;whiteSpace=wrap;" parent="1" vertex="1">
          <mxGeometry x="430" y="315" width="100" height="60" as="geometry" />
        </mxCell>
      </root>
    </mxGraphModel>
  </diagram>
  <diagram id="lCBaIlVgH23f50M7735P" name="4">
    <mxGraphModel dx="1894" dy="1829" grid="1" gridSize="10" guides="1" tooltips="1" connect="1" arrows="1" fold="1" page="1" pageScale="1" pageWidth="827" pageHeight="1169" math="0" shadow="0">
      <root>
        <mxCell id="0" />
        <mxCell id="1" parent="0" />
        <mxCell id="zpI69QmgkTldzAM-xwck-1" value="&lt;ol type=&quot;1&quot; start=&quot;1&quot; style=&quot;margin-top:0cm&quot;&gt;&lt;li style=&quot;color:#5F6368;margin-bottom:0cm;margin-bottom:.0001pt;&lt;br/&gt;     line-height:normal;mso-list:l0 level1 lfo1&quot; class=&quot;MsoNormal&quot;&gt;&lt;span style=&quot;font-size:10.0pt;&lt;br/&gt;     font-family:Roboto;mso-fareast-font-family:Roboto;mso-bidi-font-family:&lt;br/&gt;     Roboto;background:white;mso-highlight:white&quot;&gt;A partir do preço à vista de um&lt;br&gt;     determinado produto, calcular o preço total a pagar e o valor da prestação&lt;br&gt;     mensal, referentes ao pagamento parcelado. Se o pagamento for parcelado em&lt;br&gt;     três vezes, deverá ser dado um acréscimo de 10% no total a ser pago. Se&lt;br&gt;     for parcelado em 5 vezes, o acréscimo é de 20%.&lt;/span&gt;&lt;/li&gt;&lt;/ol&gt;" style="text;strokeColor=none;align=center;fillColor=none;html=1;verticalAlign=middle;whiteSpace=wrap;rounded=0;" vertex="1" parent="1">
          <mxGeometry x="570" y="-260" width="360" height="170" as="geometry" />
        </mxCell>
        <mxCell id="-nDuluZB18oui_9ilm64-1" value="" style="edgeStyle=orthogonalEdgeStyle;rounded=0;orthogonalLoop=1;jettySize=auto;html=1;" edge="1" parent="1" source="-nDuluZB18oui_9ilm64-2" target="-nDuluZB18oui_9ilm64-4">
          <mxGeometry relative="1" as="geometry" />
        </mxCell>
        <mxCell id="-nDuluZB18oui_9ilm64-2" value="INÍCIO" style="strokeWidth=2;html=1;shape=mxgraph.flowchart.start_1;whiteSpace=wrap;" vertex="1" parent="1">
          <mxGeometry x="200" y="-220" width="100" height="60" as="geometry" />
        </mxCell>
        <mxCell id="-nDuluZB18oui_9ilm64-3" value="" style="edgeStyle=orthogonalEdgeStyle;rounded=0;orthogonalLoop=1;jettySize=auto;html=1;" edge="1" parent="1" source="-nDuluZB18oui_9ilm64-4" target="-nDuluZB18oui_9ilm64-8">
          <mxGeometry relative="1" as="geometry" />
        </mxCell>
        <mxCell id="-nDuluZB18oui_9ilm64-4" value="&lt;div&gt;&lt;br&gt;&lt;/div&gt;Valor do Produto" style="html=1;strokeWidth=2;shape=manualInput;whiteSpace=wrap;rounded=1;size=26;arcSize=11;" vertex="1" parent="1">
          <mxGeometry x="200" y="-140" width="100" height="60" as="geometry" />
        </mxCell>
        <mxCell id="-nDuluZB18oui_9ilm64-5" value="" style="edgeStyle=orthogonalEdgeStyle;rounded=0;orthogonalLoop=1;jettySize=auto;html=1;entryX=0;entryY=0.667;entryDx=0;entryDy=0;entryPerimeter=0;" edge="1" parent="1" source="-nDuluZB18oui_9ilm64-8" target="-nDuluZB18oui_9ilm64-42">
          <mxGeometry relative="1" as="geometry">
            <mxPoint x="370" as="targetPoint" />
          </mxGeometry>
        </mxCell>
        <mxCell id="-nDuluZB18oui_9ilm64-6" value="" style="edgeStyle=orthogonalEdgeStyle;rounded=0;orthogonalLoop=1;jettySize=auto;html=1;" edge="1" parent="1" source="-nDuluZB18oui_9ilm64-8" target="-nDuluZB18oui_9ilm64-10">
          <mxGeometry relative="1" as="geometry" />
        </mxCell>
        <mxCell id="-nDuluZB18oui_9ilm64-7" value="F" style="edgeLabel;html=1;align=center;verticalAlign=middle;resizable=0;points=[];" vertex="1" connectable="0" parent="-nDuluZB18oui_9ilm64-6">
          <mxGeometry x="-0.0889" y="3" relative="1" as="geometry">
            <mxPoint as="offset" />
          </mxGeometry>
        </mxCell>
        <mxCell id="-nDuluZB18oui_9ilm64-8" value="Pagamento Parcelado?" style="strokeWidth=2;html=1;shape=mxgraph.flowchart.decision;whiteSpace=wrap;" vertex="1" parent="1">
          <mxGeometry x="200" y="-50" width="100" height="100" as="geometry" />
        </mxCell>
        <mxCell id="-nDuluZB18oui_9ilm64-9" value="" style="edgeStyle=orthogonalEdgeStyle;rounded=0;orthogonalLoop=1;jettySize=auto;html=1;" edge="1" parent="1" source="-nDuluZB18oui_9ilm64-10" target="-nDuluZB18oui_9ilm64-12">
          <mxGeometry relative="1" as="geometry" />
        </mxCell>
        <mxCell id="-nDuluZB18oui_9ilm64-10" value="Total = Valor do Produto" style="whiteSpace=wrap;html=1;strokeWidth=2;" vertex="1" parent="1">
          <mxGeometry x="190" y="110" width="120" height="60" as="geometry" />
        </mxCell>
        <mxCell id="-nDuluZB18oui_9ilm64-11" value="" style="edgeStyle=orthogonalEdgeStyle;rounded=0;orthogonalLoop=1;jettySize=auto;html=1;entryX=0.5;entryY=1;entryDx=0;entryDy=0;entryPerimeter=0;" edge="1" parent="1" source="-nDuluZB18oui_9ilm64-12" target="-nDuluZB18oui_9ilm64-13">
          <mxGeometry relative="1" as="geometry">
            <Array as="points">
              <mxPoint x="250" y="390" />
              <mxPoint x="980" y="390" />
            </Array>
          </mxGeometry>
        </mxCell>
        <mxCell id="-nDuluZB18oui_9ilm64-12" value="Total" style="strokeWidth=2;html=1;shape=mxgraph.flowchart.display;whiteSpace=wrap;" vertex="1" parent="1">
          <mxGeometry x="200" y="205" width="100" height="60" as="geometry" />
        </mxCell>
        <mxCell id="-nDuluZB18oui_9ilm64-13" value="FIM" style="strokeWidth=2;html=1;shape=mxgraph.flowchart.terminator;whiteSpace=wrap;" vertex="1" parent="1">
          <mxGeometry x="930" y="310" width="100" height="60" as="geometry" />
        </mxCell>
        <mxCell id="-nDuluZB18oui_9ilm64-14" value="" style="edgeStyle=orthogonalEdgeStyle;rounded=0;orthogonalLoop=1;jettySize=auto;html=1;" edge="1" parent="1" source="-nDuluZB18oui_9ilm64-18" target="-nDuluZB18oui_9ilm64-20">
          <mxGeometry relative="1" as="geometry" />
        </mxCell>
        <mxCell id="-nDuluZB18oui_9ilm64-15" value="V" style="edgeLabel;html=1;align=center;verticalAlign=middle;resizable=0;points=[];" vertex="1" connectable="0" parent="-nDuluZB18oui_9ilm64-14">
          <mxGeometry x="-0.2762" y="-2" relative="1" as="geometry">
            <mxPoint as="offset" />
          </mxGeometry>
        </mxCell>
        <mxCell id="-nDuluZB18oui_9ilm64-16" value="" style="edgeStyle=orthogonalEdgeStyle;rounded=0;orthogonalLoop=1;jettySize=auto;html=1;" edge="1" parent="1" source="-nDuluZB18oui_9ilm64-18" target="-nDuluZB18oui_9ilm64-24">
          <mxGeometry relative="1" as="geometry" />
        </mxCell>
        <mxCell id="-nDuluZB18oui_9ilm64-17" value="F" style="edgeLabel;html=1;align=center;verticalAlign=middle;resizable=0;points=[];" vertex="1" connectable="0" parent="-nDuluZB18oui_9ilm64-16">
          <mxGeometry x="-0.2494" y="2" relative="1" as="geometry">
            <mxPoint as="offset" />
          </mxGeometry>
        </mxCell>
        <mxCell id="-nDuluZB18oui_9ilm64-18" value="&lt;font style=&quot;font-size: 10px;&quot;&gt;ParcelaDesejada&amp;nbsp;&lt;/font&gt;&lt;div&gt;== 3&lt;/div&gt;" style="strokeWidth=2;html=1;shape=mxgraph.flowchart.decision;whiteSpace=wrap;" vertex="1" parent="1">
          <mxGeometry x="460" y="-60" width="100" height="100" as="geometry" />
        </mxCell>
        <mxCell id="-nDuluZB18oui_9ilm64-19" value="" style="edgeStyle=orthogonalEdgeStyle;rounded=0;orthogonalLoop=1;jettySize=auto;html=1;" edge="1" parent="1" source="-nDuluZB18oui_9ilm64-20" target="-nDuluZB18oui_9ilm64-28">
          <mxGeometry relative="1" as="geometry" />
        </mxCell>
        <mxCell id="-nDuluZB18oui_9ilm64-20" value="acréscimo = (10 /100) * ValorProduto" style="whiteSpace=wrap;html=1;strokeWidth=2;" vertex="1" parent="1">
          <mxGeometry x="630" y="-40" width="120" height="60" as="geometry" />
        </mxCell>
        <mxCell id="-nDuluZB18oui_9ilm64-21" value="V" style="edgeStyle=orthogonalEdgeStyle;rounded=0;orthogonalLoop=1;jettySize=auto;html=1;" edge="1" parent="1" source="-nDuluZB18oui_9ilm64-24" target="-nDuluZB18oui_9ilm64-26">
          <mxGeometry relative="1" as="geometry" />
        </mxCell>
        <mxCell id="-nDuluZB18oui_9ilm64-22" value="" style="edgeStyle=orthogonalEdgeStyle;rounded=0;orthogonalLoop=1;jettySize=auto;html=1;entryX=0.5;entryY=0;entryDx=0;entryDy=0;" edge="1" parent="1" source="-nDuluZB18oui_9ilm64-24" target="-nDuluZB18oui_9ilm64-38">
          <mxGeometry relative="1" as="geometry">
            <mxPoint x="509.9999999999999" y="320" as="targetPoint" />
          </mxGeometry>
        </mxCell>
        <mxCell id="-nDuluZB18oui_9ilm64-23" value="F" style="edgeLabel;html=1;align=center;verticalAlign=middle;resizable=0;points=[];" vertex="1" connectable="0" parent="-nDuluZB18oui_9ilm64-22">
          <mxGeometry x="-0.3204" relative="1" as="geometry">
            <mxPoint as="offset" />
          </mxGeometry>
        </mxCell>
        <mxCell id="-nDuluZB18oui_9ilm64-24" value="ParcelaDesejada == 5" style="rhombus;whiteSpace=wrap;html=1;strokeWidth=2;" vertex="1" parent="1">
          <mxGeometry x="460" y="90" width="100" height="100" as="geometry" />
        </mxCell>
        <mxCell id="-nDuluZB18oui_9ilm64-25" value="" style="edgeStyle=orthogonalEdgeStyle;rounded=0;orthogonalLoop=1;jettySize=auto;html=1;" edge="1" parent="1" source="-nDuluZB18oui_9ilm64-26" target="-nDuluZB18oui_9ilm64-32">
          <mxGeometry relative="1" as="geometry" />
        </mxCell>
        <mxCell id="-nDuluZB18oui_9ilm64-26" value="acréscimo = (20 / 100)&lt;div&gt;* ValorProduto&lt;/div&gt;" style="whiteSpace=wrap;html=1;strokeWidth=2;" vertex="1" parent="1">
          <mxGeometry x="630" y="110" width="120" height="60" as="geometry" />
        </mxCell>
        <mxCell id="-nDuluZB18oui_9ilm64-27" value="" style="edgeStyle=orthogonalEdgeStyle;rounded=0;orthogonalLoop=1;jettySize=auto;html=1;" edge="1" parent="1" source="-nDuluZB18oui_9ilm64-28" target="-nDuluZB18oui_9ilm64-30">
          <mxGeometry relative="1" as="geometry" />
        </mxCell>
        <mxCell id="-nDuluZB18oui_9ilm64-28" value="TotalParcelas = (ValorProduto + acréscimo) / 3" style="whiteSpace=wrap;html=1;strokeWidth=2;" vertex="1" parent="1">
          <mxGeometry x="780" y="-40" width="120" height="60" as="geometry" />
        </mxCell>
        <mxCell id="-nDuluZB18oui_9ilm64-29" value="" style="edgeStyle=orthogonalEdgeStyle;rounded=0;orthogonalLoop=1;jettySize=auto;html=1;entryX=1;entryY=0.5;entryDx=0;entryDy=0;entryPerimeter=0;exitX=1;exitY=0.5;exitDx=0;exitDy=0;exitPerimeter=0;" edge="1" parent="1" source="-nDuluZB18oui_9ilm64-30" target="-nDuluZB18oui_9ilm64-13">
          <mxGeometry relative="1" as="geometry">
            <mxPoint x="1160.0000000000005" y="10" as="targetPoint" />
            <Array as="points">
              <mxPoint x="1046.15" y="-10" />
              <mxPoint x="1046.15" y="340" />
            </Array>
          </mxGeometry>
        </mxCell>
        <mxCell id="-nDuluZB18oui_9ilm64-30" value="TotalParcelas" style="strokeWidth=2;html=1;shape=mxgraph.flowchart.display;whiteSpace=wrap;" vertex="1" parent="1">
          <mxGeometry x="930" y="-40" width="100" height="60" as="geometry" />
        </mxCell>
        <mxCell id="-nDuluZB18oui_9ilm64-31" value="" style="edgeStyle=orthogonalEdgeStyle;rounded=0;orthogonalLoop=1;jettySize=auto;html=1;" edge="1" parent="1" source="-nDuluZB18oui_9ilm64-32" target="-nDuluZB18oui_9ilm64-34">
          <mxGeometry relative="1" as="geometry" />
        </mxCell>
        <mxCell id="-nDuluZB18oui_9ilm64-32" value="TotalParcelas = (ValorProduto + acréscimo) / 5" style="whiteSpace=wrap;html=1;strokeWidth=2;" vertex="1" parent="1">
          <mxGeometry x="780" y="110" width="120" height="60" as="geometry" />
        </mxCell>
        <mxCell id="-nDuluZB18oui_9ilm64-33" value="" style="edgeStyle=orthogonalEdgeStyle;rounded=0;orthogonalLoop=1;jettySize=auto;html=1;entryX=0.5;entryY=0;entryDx=0;entryDy=0;entryPerimeter=0;" edge="1" parent="1" source="-nDuluZB18oui_9ilm64-34" target="-nDuluZB18oui_9ilm64-13">
          <mxGeometry relative="1" as="geometry">
            <mxPoint x="1160.0000000000005" y="140" as="targetPoint" />
          </mxGeometry>
        </mxCell>
        <mxCell id="-nDuluZB18oui_9ilm64-34" value="TotalParcelas" style="strokeWidth=2;html=1;shape=mxgraph.flowchart.display;whiteSpace=wrap;" vertex="1" parent="1">
          <mxGeometry x="930" y="110" width="100" height="60" as="geometry" />
        </mxCell>
        <mxCell id="-nDuluZB18oui_9ilm64-35" value="" style="edgeStyle=orthogonalEdgeStyle;rounded=0;orthogonalLoop=1;jettySize=auto;html=1;" edge="1" parent="1" source="-nDuluZB18oui_9ilm64-36" target="-nDuluZB18oui_9ilm64-40">
          <mxGeometry relative="1" as="geometry" />
        </mxCell>
        <mxCell id="-nDuluZB18oui_9ilm64-36" value="TotalParcelas = ValorProduto / Parcelas" style="whiteSpace=wrap;html=1;strokeWidth=2;" vertex="1" parent="1">
          <mxGeometry x="450" y="310" width="120" height="60" as="geometry" />
        </mxCell>
        <mxCell id="-nDuluZB18oui_9ilm64-37" value="" style="edgeStyle=orthogonalEdgeStyle;rounded=0;orthogonalLoop=1;jettySize=auto;html=1;" edge="1" parent="1" source="-nDuluZB18oui_9ilm64-38" target="-nDuluZB18oui_9ilm64-36">
          <mxGeometry relative="1" as="geometry" />
        </mxCell>
        <mxCell id="-nDuluZB18oui_9ilm64-38" value="Parcelas = ParcelaDesejada" style="whiteSpace=wrap;html=1;strokeWidth=2;" vertex="1" parent="1">
          <mxGeometry x="450" y="220" width="120" height="60" as="geometry" />
        </mxCell>
        <mxCell id="-nDuluZB18oui_9ilm64-39" value="" style="edgeStyle=orthogonalEdgeStyle;rounded=0;orthogonalLoop=1;jettySize=auto;html=1;entryX=0;entryY=0.5;entryDx=0;entryDy=0;entryPerimeter=0;" edge="1" parent="1" source="-nDuluZB18oui_9ilm64-40" target="-nDuluZB18oui_9ilm64-13">
          <mxGeometry relative="1" as="geometry">
            <mxPoint x="830" y="340" as="targetPoint" />
          </mxGeometry>
        </mxCell>
        <mxCell id="-nDuluZB18oui_9ilm64-40" value="TotalParcelas" style="strokeWidth=2;html=1;shape=mxgraph.flowchart.display;whiteSpace=wrap;" vertex="1" parent="1">
          <mxGeometry x="640" y="310" width="100" height="60" as="geometry" />
        </mxCell>
        <mxCell id="-nDuluZB18oui_9ilm64-41" value="" style="edgeStyle=orthogonalEdgeStyle;rounded=0;orthogonalLoop=1;jettySize=auto;html=1;" edge="1" parent="1" source="-nDuluZB18oui_9ilm64-42" target="-nDuluZB18oui_9ilm64-18">
          <mxGeometry relative="1" as="geometry" />
        </mxCell>
        <mxCell id="-nDuluZB18oui_9ilm64-42" value="&lt;div&gt;&lt;font style=&quot;font-size: 10px;&quot;&gt;&lt;br&gt;&lt;/font&gt;&lt;/div&gt;&lt;font style=&quot;font-size: 10px;&quot;&gt;Em quantas vezes você deseja parcelar?&lt;/font&gt;" style="html=1;strokeWidth=2;shape=manualInput;whiteSpace=wrap;rounded=1;size=26;arcSize=11;" vertex="1" parent="1">
          <mxGeometry x="320" y="-40" width="100" height="60" as="geometry" />
        </mxCell>
      </root>
    </mxGraphModel>
  </diagram>
</mxfile>
